<?xml version="1.0" standalone="no"?>
<!DOCTYPE svg PUBLIC "-//W3C//DTD SVG 20010904//EN"
 "http://www.w3.org/TR/2001/REC-SVG-20010904/DTD/svg10.dtd">
<svg version="1.0" xmlns="http://www.w3.org/2000/svg"
 width="512.000000pt" height="512.000000pt" viewBox="0 0 512.000000 512.000000"
 preserveAspectRatio="xMidYMid meet">

<g transform="translate(0.000000,512.000000) scale(0.100000,-0.100000)"
fill="#000000" stroke="none">
<path d="M1602 4623 c-51 -25 -82 -78 -82 -139 0 -43 11 -71 71 -190 74 -145
110 -191 160 -201 l29 -5 0 -129 0 -128 -164 -3 c-148 -3 -167 -5 -192 -24
-45 -33 -67 -70 -72 -122 -5 -56 -7 -53 112 -252 l86 -144 0 -133 0 -133 -142
0 c-118 0 -150 -4 -184 -19 -77 -35 -114 -127 -81 -201 28 -64 201 -293 237
-315 30 -17 56 -20 183 -23 l147 -4 0 -514 0 -514 305 0 305 0 0 1583 0 1584
-23 21 c-23 22 -28 22 -343 22 -275 0 -324 -3 -352 -17z"/>
<path d="M2822 4617 l-22 -23 0 -1582 0 -1582 305 0 305 0 0 514 0 514 148 4
c126 3 152 6 182 23 44 26 237 293 246 340 13 72 -24 146 -89 175 -35 16 -66
20 -184 20 l-143 0 0 133 0 133 86 144 c119 199 117 196 112 252 -5 52 -27 89
-72 122 -25 19 -44 21 -192 24 l-164 3 0 128 0 129 29 5 c50 10 86 56 160 201
60 119 71 147 71 190 0 38 -6 61 -24 87 -46 67 -56 69 -413 69 l-320 0 -21
-23z"/>
<path d="M822 2293 c-49 -24 -75 -68 -80 -132 -3 -55 -1 -60 89 -220 78 -139
97 -165 125 -177 l34 -14 0 -160 0 -160 280 0 280 0 0 440 0 440 -347 0 c-300
0 -353 -3 -381 -17z"/>
<path d="M3570 1870 l0 -440 280 0 280 0 0 160 0 160 34 14 c28 12 47 38 125
177 90 160 92 165 89 220 -5 65 -31 109 -82 133 -29 14 -82 16 -380 16 l-346
0 0 -440z"/>
<path d="M770 1261 c-109 -34 -170 -114 -178 -237 l-4 -71 -42 -1 c-55 -3
-138 -45 -171 -87 -101 -133 -47 -328 104 -374 28 -8 580 -11 2087 -11 1973 0
2051 1 2090 19 62 28 112 86 131 150 41 143 -56 287 -202 299 l-52 4 -6 73
c-8 107 -48 173 -132 218 l-40 22 -1780 2 c-979 1 -1791 -2 -1805 -6z"/>
</g>
</svg>
